<mxfile host="Electron" agent="Mozilla/5.0 (Windows NT 10.0; Win64; x64) AppleWebKit/537.36 (KHTML, like Gecko) draw.io/28.0.6 Chrome/138.0.7204.100 Electron/37.2.3 Safari/537.36" version="28.0.6">
  <diagram name="第 1 页" id="UAi1EE4oxf3AX3Hq5mNt">
    <mxGraphModel dx="1404" dy="1182" grid="1" gridSize="10" guides="1" tooltips="1" connect="1" arrows="0" fold="1" page="1" pageScale="1" pageWidth="827" pageHeight="1169" math="0" shadow="0">
      <root>
        <mxCell id="0" />
        <mxCell id="1" parent="0" />
        <mxCell id="PbMAt9xQU2e5YSf6mBX6-1" value="&lt;font style=&quot;font-size: 16px;&quot;&gt;IF&lt;/font&gt;" style="rounded=0;whiteSpace=wrap;html=1;verticalAlign=top;fontColor=#000000;" vertex="1" parent="1">
          <mxGeometry x="80" y="120" width="80" height="440" as="geometry" />
        </mxCell>
        <mxCell id="PbMAt9xQU2e5YSf6mBX6-20" value="&lt;font style=&quot;font-size: 16px;&quot;&gt;ID&lt;/font&gt;" style="rounded=0;whiteSpace=wrap;html=1;verticalAlign=top;fontColor=#000000;" vertex="1" parent="1">
          <mxGeometry x="280" y="120" width="80" height="440" as="geometry" />
        </mxCell>
        <mxCell id="PbMAt9xQU2e5YSf6mBX6-21" value="reg&lt;div&gt;(x/f)&lt;/div&gt;" style="rounded=0;whiteSpace=wrap;html=1;fontColor=#000000;" vertex="1" parent="1">
          <mxGeometry x="300" y="264" width="40" height="64" as="geometry" />
        </mxCell>
        <mxCell id="PbMAt9xQU2e5YSf6mBX6-23" value="&lt;font style=&quot;font-size: 14px;&quot;&gt;EXE&lt;/font&gt;" style="rounded=0;whiteSpace=wrap;html=1;verticalAlign=top;fontColor=#000000;" vertex="1" parent="1">
          <mxGeometry x="480" y="120" width="120" height="440" as="geometry" />
        </mxCell>
        <mxCell id="PbMAt9xQU2e5YSf6mBX6-27" value="" style="endArrow=classic;html=1;rounded=0;exitX=0.97;exitY=0.116;exitDx=0;exitDy=0;exitPerimeter=0;entryX=-0.02;entryY=0.116;entryDx=0;entryDy=0;entryPerimeter=0;fontColor=#000000;" edge="1" parent="1">
          <mxGeometry width="50" height="50" relative="1" as="geometry">
            <mxPoint x="160.00000000000003" y="160.12" as="sourcePoint" />
            <mxPoint x="280.80000000000007" y="160.12" as="targetPoint" />
          </mxGeometry>
        </mxCell>
        <mxCell id="PbMAt9xQU2e5YSf6mBX6-28" value="" style="endArrow=classic;html=1;rounded=0;exitX=0.97;exitY=0.116;exitDx=0;exitDy=0;exitPerimeter=0;entryX=-0.02;entryY=0.116;entryDx=0;entryDy=0;entryPerimeter=0;fontColor=#000000;" edge="1" parent="1">
          <mxGeometry width="50" height="50" relative="1" as="geometry">
            <mxPoint x="160.2" y="180" as="sourcePoint" />
            <mxPoint x="281.00000000000006" y="180" as="targetPoint" />
          </mxGeometry>
        </mxCell>
        <mxCell id="PbMAt9xQU2e5YSf6mBX6-31" value="PC_IF(32)" style="text;html=1;align=left;verticalAlign=middle;whiteSpace=wrap;rounded=0;fontColor=#000000;" vertex="1" parent="1">
          <mxGeometry x="189" y="147" width="60" height="10" as="geometry" />
        </mxCell>
        <mxCell id="PbMAt9xQU2e5YSf6mBX6-32" value="inst_IF(32)" style="text;html=1;align=left;verticalAlign=middle;whiteSpace=wrap;rounded=0;fontColor=#000000;" vertex="1" parent="1">
          <mxGeometry x="190" y="167" width="60" height="10" as="geometry" />
        </mxCell>
        <mxCell id="PbMAt9xQU2e5YSf6mBX6-33" value="" style="endArrow=classic;html=1;rounded=0;exitX=0.97;exitY=0.116;exitDx=0;exitDy=0;exitPerimeter=0;entryX=-0.02;entryY=0.116;entryDx=0;entryDy=0;entryPerimeter=0;fontColor=#000000;" edge="1" parent="1">
          <mxGeometry width="50" height="50" relative="1" as="geometry">
            <mxPoint x="360" y="159.12" as="sourcePoint" />
            <mxPoint x="480.80000000000007" y="159.12" as="targetPoint" />
          </mxGeometry>
        </mxCell>
        <mxCell id="PbMAt9xQU2e5YSf6mBX6-34" value="" style="endArrow=classic;html=1;rounded=0;exitX=0.97;exitY=0.116;exitDx=0;exitDy=0;exitPerimeter=0;entryX=-0.02;entryY=0.116;entryDx=0;entryDy=0;entryPerimeter=0;fontColor=#000000;" edge="1" parent="1">
          <mxGeometry width="50" height="50" relative="1" as="geometry">
            <mxPoint x="360.19999999999993" y="180" as="sourcePoint" />
            <mxPoint x="481" y="180" as="targetPoint" />
          </mxGeometry>
        </mxCell>
        <mxCell id="PbMAt9xQU2e5YSf6mBX6-35" value="PC_ID(32)" style="text;html=1;align=left;verticalAlign=middle;whiteSpace=wrap;rounded=0;fontColor=#000000;" vertex="1" parent="1">
          <mxGeometry x="392" y="146" width="60" height="10" as="geometry" />
        </mxCell>
        <mxCell id="PbMAt9xQU2e5YSf6mBX6-36" value="inst_op_ID(7)" style="text;html=1;align=left;verticalAlign=middle;whiteSpace=wrap;rounded=0;fontColor=#000000;" vertex="1" parent="1">
          <mxGeometry x="387" y="167" width="60" height="10" as="geometry" />
        </mxCell>
        <mxCell id="PbMAt9xQU2e5YSf6mBX6-37" value="" style="endArrow=classic;html=1;rounded=0;exitX=0.97;exitY=0.116;exitDx=0;exitDy=0;exitPerimeter=0;entryX=-0.02;entryY=0.116;entryDx=0;entryDy=0;entryPerimeter=0;fontColor=#000000;" edge="1" parent="1">
          <mxGeometry width="50" height="50" relative="1" as="geometry">
            <mxPoint x="359.6" y="200" as="sourcePoint" />
            <mxPoint x="480.4000000000001" y="200" as="targetPoint" />
          </mxGeometry>
        </mxCell>
        <mxCell id="PbMAt9xQU2e5YSf6mBX6-38" value="cvfpu_op(4)" style="text;html=1;align=left;verticalAlign=middle;whiteSpace=wrap;rounded=0;fontColor=#000000;" vertex="1" parent="1">
          <mxGeometry x="387.4000000000001" y="187" width="60" height="10" as="geometry" />
        </mxCell>
        <mxCell id="PbMAt9xQU2e5YSf6mBX6-39" value="" style="endArrow=classic;html=1;rounded=0;exitX=0.97;exitY=0.116;exitDx=0;exitDy=0;exitPerimeter=0;entryX=-0.02;entryY=0.116;entryDx=0;entryDy=0;entryPerimeter=0;fontColor=#000000;" edge="1" parent="1">
          <mxGeometry width="50" height="50" relative="1" as="geometry">
            <mxPoint x="360" y="220" as="sourcePoint" />
            <mxPoint x="480.80000000000007" y="220" as="targetPoint" />
          </mxGeometry>
        </mxCell>
        <mxCell id="PbMAt9xQU2e5YSf6mBX6-40" value="cvfpu_op_mod(4)" style="text;html=1;align=left;verticalAlign=middle;whiteSpace=wrap;rounded=0;fontColor=#000000;" vertex="1" parent="1">
          <mxGeometry x="370" y="207" width="100" height="10" as="geometry" />
        </mxCell>
        <mxCell id="PbMAt9xQU2e5YSf6mBX6-42" value="" style="endArrow=classic;html=1;rounded=0;exitX=0.97;exitY=0.116;exitDx=0;exitDy=0;exitPerimeter=0;entryX=-0.02;entryY=0.116;entryDx=0;entryDy=0;entryPerimeter=0;fontColor=#000000;" edge="1" parent="1">
          <mxGeometry width="50" height="50" relative="1" as="geometry">
            <mxPoint x="360.6" y="239" as="sourcePoint" />
            <mxPoint x="481.4000000000001" y="239" as="targetPoint" />
          </mxGeometry>
        </mxCell>
        <mxCell id="PbMAt9xQU2e5YSf6mBX6-43" value="cvfpu_rm(4)" style="text;html=1;align=left;verticalAlign=middle;whiteSpace=wrap;rounded=0;fontColor=#000000;" vertex="1" parent="1">
          <mxGeometry x="387.4000000000001" y="226" width="60" height="10" as="geometry" />
        </mxCell>
        <mxCell id="PbMAt9xQU2e5YSf6mBX6-44" value="" style="endArrow=classic;html=1;rounded=0;exitX=0.97;exitY=0.116;exitDx=0;exitDy=0;exitPerimeter=0;entryX=-0.02;entryY=0.116;entryDx=0;entryDy=0;entryPerimeter=0;fontColor=#000000;" edge="1" parent="1">
          <mxGeometry width="50" height="50" relative="1" as="geometry">
            <mxPoint x="360.3" y="278.83" as="sourcePoint" />
            <mxPoint x="481.1000000000001" y="278.83" as="targetPoint" />
          </mxGeometry>
        </mxCell>
        <mxCell id="PbMAt9xQU2e5YSf6mBX6-45" value="rs1_ID(32)" style="text;html=1;align=left;verticalAlign=middle;whiteSpace=wrap;rounded=0;fontColor=#000000;" vertex="1" parent="1">
          <mxGeometry x="385.3" y="265" width="74.7" height="10" as="geometry" />
        </mxCell>
        <mxCell id="PbMAt9xQU2e5YSf6mBX6-46" value="" style="endArrow=classic;html=1;rounded=0;exitX=0.97;exitY=0.116;exitDx=0;exitDy=0;exitPerimeter=0;entryX=-0.02;entryY=0.116;entryDx=0;entryDy=0;entryPerimeter=0;fontColor=#000000;" edge="1" parent="1">
          <mxGeometry width="50" height="50" relative="1" as="geometry">
            <mxPoint x="359.90000000000003" y="296.83" as="sourcePoint" />
            <mxPoint x="480.7000000000001" y="296.83" as="targetPoint" />
          </mxGeometry>
        </mxCell>
        <mxCell id="PbMAt9xQU2e5YSf6mBX6-47" value="rs2_ID(32)" style="text;html=1;align=left;verticalAlign=middle;whiteSpace=wrap;rounded=0;fontColor=#000000;" vertex="1" parent="1">
          <mxGeometry x="385.3000000000001" y="283.83" width="60" height="10" as="geometry" />
        </mxCell>
        <mxCell id="PbMAt9xQU2e5YSf6mBX6-48" value="" style="endArrow=classic;html=1;rounded=0;exitX=0.97;exitY=0.116;exitDx=0;exitDy=0;exitPerimeter=0;entryX=-0.02;entryY=0.116;entryDx=0;entryDy=0;entryPerimeter=0;fontColor=#000000;" edge="1" parent="1">
          <mxGeometry width="50" height="50" relative="1" as="geometry">
            <mxPoint x="360.3" y="373" as="sourcePoint" />
            <mxPoint x="481.1000000000001" y="373" as="targetPoint" />
          </mxGeometry>
        </mxCell>
        <mxCell id="PbMAt9xQU2e5YSf6mBX6-49" value="f_reg_write_ID(1)" style="text;html=1;align=left;verticalAlign=middle;whiteSpace=wrap;rounded=0;fontColor=#000000;" vertex="1" parent="1">
          <mxGeometry x="372.3" y="360" width="89.7" height="10" as="geometry" />
        </mxCell>
        <mxCell id="PbMAt9xQU2e5YSf6mBX6-50" value="" style="endArrow=classic;html=1;rounded=0;exitX=0.97;exitY=0.116;exitDx=0;exitDy=0;exitPerimeter=0;entryX=-0.02;entryY=0.116;entryDx=0;entryDy=0;entryPerimeter=0;fontColor=#000000;" edge="1" parent="1">
          <mxGeometry width="50" height="50" relative="1" as="geometry">
            <mxPoint x="359.90000000000003" y="392" as="sourcePoint" />
            <mxPoint x="480.7000000000001" y="392" as="targetPoint" />
          </mxGeometry>
        </mxCell>
        <mxCell id="PbMAt9xQU2e5YSf6mBX6-51" value="f_reg_widx_ID(5)" style="text;html=1;align=left;verticalAlign=middle;whiteSpace=wrap;rounded=0;fontColor=#000000;" vertex="1" parent="1">
          <mxGeometry x="372.3000000000001" y="379" width="60" height="10" as="geometry" />
        </mxCell>
        <mxCell id="PbMAt9xQU2e5YSf6mBX6-52" value="" style="endArrow=classic;html=1;rounded=0;exitX=0.97;exitY=0.116;exitDx=0;exitDy=0;exitPerimeter=0;entryX=-0.02;entryY=0.116;entryDx=0;entryDy=0;entryPerimeter=0;fontColor=#000000;" edge="1" parent="1">
          <mxGeometry width="50" height="50" relative="1" as="geometry">
            <mxPoint x="360" y="314.83" as="sourcePoint" />
            <mxPoint x="480.80000000000007" y="314.83" as="targetPoint" />
          </mxGeometry>
        </mxCell>
        <mxCell id="PbMAt9xQU2e5YSf6mBX6-53" value="rs3_ID(32)" style="text;html=1;align=left;verticalAlign=middle;whiteSpace=wrap;rounded=0;fontColor=#000000;" vertex="1" parent="1">
          <mxGeometry x="385.30000000000007" y="301.83" width="60" height="10" as="geometry" />
        </mxCell>
        <mxCell id="PbMAt9xQU2e5YSf6mBX6-54" value="cvfpu" style="rounded=0;whiteSpace=wrap;html=1;fontColor=#000000;" vertex="1" parent="1">
          <mxGeometry x="496" y="190" width="90" height="140" as="geometry" />
        </mxCell>
        <mxCell id="PbMAt9xQU2e5YSf6mBX6-55" value="&lt;font style=&quot;font-size: 16px;&quot;&gt;MEM&lt;/font&gt;" style="rounded=0;whiteSpace=wrap;html=1;verticalAlign=top;fontColor=#000000;" vertex="1" parent="1">
          <mxGeometry x="720" y="120" width="80" height="320" as="geometry" />
        </mxCell>
        <mxCell id="PbMAt9xQU2e5YSf6mBX6-56" value="&lt;font style=&quot;font-size: 16px;&quot;&gt;WB&lt;/font&gt;" style="rounded=0;whiteSpace=wrap;html=1;verticalAlign=top;fontColor=#000000;" vertex="1" parent="1">
          <mxGeometry x="920" y="120" width="80" height="440" as="geometry" />
        </mxCell>
        <mxCell id="PbMAt9xQU2e5YSf6mBX6-57" value="" style="endArrow=classic;html=1;rounded=0;exitX=0.97;exitY=0.116;exitDx=0;exitDy=0;exitPerimeter=0;entryX=-0.02;entryY=0.116;entryDx=0;entryDy=0;entryPerimeter=0;fontColor=#000000;" edge="1" parent="1">
          <mxGeometry width="50" height="50" relative="1" as="geometry">
            <mxPoint x="600" y="160.12" as="sourcePoint" />
            <mxPoint x="720.8000000000001" y="160.12" as="targetPoint" />
          </mxGeometry>
        </mxCell>
        <mxCell id="PbMAt9xQU2e5YSf6mBX6-58" value="PC_EX(32)" style="text;html=1;align=left;verticalAlign=middle;whiteSpace=wrap;rounded=0;fontColor=#000000;" vertex="1" parent="1">
          <mxGeometry x="632" y="147" width="60" height="10" as="geometry" />
        </mxCell>
        <mxCell id="PbMAt9xQU2e5YSf6mBX6-59" value="" style="endArrow=classic;html=1;rounded=0;exitX=0.97;exitY=0.116;exitDx=0;exitDy=0;exitPerimeter=0;entryX=-0.02;entryY=0.116;entryDx=0;entryDy=0;entryPerimeter=0;fontColor=#000000;" edge="1" parent="1">
          <mxGeometry width="50" height="50" relative="1" as="geometry">
            <mxPoint x="600.6" y="265.16999999999996" as="sourcePoint" />
            <mxPoint x="721.4000000000001" y="265.16999999999996" as="targetPoint" />
          </mxGeometry>
        </mxCell>
        <mxCell id="PbMAt9xQU2e5YSf6mBX6-60" value="result_fpu_EX(32)" style="text;html=1;align=left;verticalAlign=middle;whiteSpace=wrap;rounded=0;fontColor=#000000;" vertex="1" parent="1">
          <mxGeometry x="613.6" y="251.34" width="74.7" height="10" as="geometry" />
        </mxCell>
        <mxCell id="PbMAt9xQU2e5YSf6mBX6-62" value="" style="endArrow=classic;html=1;rounded=0;exitX=0.97;exitY=0.116;exitDx=0;exitDy=0;exitPerimeter=0;entryX=-0.02;entryY=0.116;entryDx=0;entryDy=0;entryPerimeter=0;fontColor=#000000;" edge="1" parent="1">
          <mxGeometry width="50" height="50" relative="1" as="geometry">
            <mxPoint x="600.4" y="371.16999999999996" as="sourcePoint" />
            <mxPoint x="721.2" y="371.16999999999996" as="targetPoint" />
          </mxGeometry>
        </mxCell>
        <mxCell id="PbMAt9xQU2e5YSf6mBX6-63" value="f_reg_write_EX(1)" style="text;html=1;align=left;verticalAlign=middle;whiteSpace=wrap;rounded=0;fontColor=#000000;" vertex="1" parent="1">
          <mxGeometry x="612.4" y="358.16999999999996" width="89.7" height="10" as="geometry" />
        </mxCell>
        <mxCell id="PbMAt9xQU2e5YSf6mBX6-64" value="" style="endArrow=classic;html=1;rounded=0;exitX=0.97;exitY=0.116;exitDx=0;exitDy=0;exitPerimeter=0;entryX=-0.02;entryY=0.116;entryDx=0;entryDy=0;entryPerimeter=0;fontColor=#000000;" edge="1" parent="1">
          <mxGeometry width="50" height="50" relative="1" as="geometry">
            <mxPoint x="600" y="390.16999999999996" as="sourcePoint" />
            <mxPoint x="720.8000000000001" y="390.16999999999996" as="targetPoint" />
          </mxGeometry>
        </mxCell>
        <mxCell id="PbMAt9xQU2e5YSf6mBX6-65" value="f_reg_widx_EX(5)" style="text;html=1;align=left;verticalAlign=middle;whiteSpace=wrap;rounded=0;fontColor=#000000;" vertex="1" parent="1">
          <mxGeometry x="612.4000000000001" y="377.16999999999996" width="60" height="10" as="geometry" />
        </mxCell>
        <mxCell id="PbMAt9xQU2e5YSf6mBX6-66" value="" style="endArrow=classic;html=1;rounded=0;exitX=0.97;exitY=0.116;exitDx=0;exitDy=0;exitPerimeter=0;entryX=-0.02;entryY=0.116;entryDx=0;entryDy=0;entryPerimeter=0;fontColor=#000000;" edge="1" parent="1">
          <mxGeometry width="50" height="50" relative="1" as="geometry">
            <mxPoint x="799.6" y="159.12" as="sourcePoint" />
            <mxPoint x="920.4000000000001" y="159.12" as="targetPoint" />
          </mxGeometry>
        </mxCell>
        <mxCell id="PbMAt9xQU2e5YSf6mBX6-67" value="PC_MEM(32)" style="text;html=1;align=left;verticalAlign=middle;whiteSpace=wrap;rounded=0;fontColor=#000000;" vertex="1" parent="1">
          <mxGeometry x="824.6" y="146" width="60" height="10" as="geometry" />
        </mxCell>
        <mxCell id="PbMAt9xQU2e5YSf6mBX6-68" value="" style="endArrow=classic;html=1;rounded=0;exitX=0.97;exitY=0.116;exitDx=0;exitDy=0;exitPerimeter=0;entryX=-0.02;entryY=0.116;entryDx=0;entryDy=0;entryPerimeter=0;fontColor=#000000;" edge="1" parent="1">
          <mxGeometry width="50" height="50" relative="1" as="geometry">
            <mxPoint x="800.2" y="264.16999999999996" as="sourcePoint" />
            <mxPoint x="921.0000000000001" y="264.16999999999996" as="targetPoint" />
          </mxGeometry>
        </mxCell>
        <mxCell id="PbMAt9xQU2e5YSf6mBX6-69" value="fpu_out_MEM(32)" style="text;html=1;align=left;verticalAlign=middle;whiteSpace=wrap;rounded=0;fontColor=#000000;" vertex="1" parent="1">
          <mxGeometry x="812" y="251.34000000000003" width="74.7" height="10" as="geometry" />
        </mxCell>
        <mxCell id="PbMAt9xQU2e5YSf6mBX6-70" value="" style="endArrow=classic;html=1;rounded=0;exitX=0.97;exitY=0.116;exitDx=0;exitDy=0;exitPerimeter=0;entryX=-0.02;entryY=0.116;entryDx=0;entryDy=0;entryPerimeter=0;fontColor=#000000;" edge="1" parent="1">
          <mxGeometry width="50" height="50" relative="1" as="geometry">
            <mxPoint x="800" y="370.16999999999996" as="sourcePoint" />
            <mxPoint x="920.8000000000001" y="370.16999999999996" as="targetPoint" />
          </mxGeometry>
        </mxCell>
        <mxCell id="PbMAt9xQU2e5YSf6mBX6-71" value="f_reg_write_MEM(1)" style="text;html=1;align=left;verticalAlign=middle;whiteSpace=wrap;rounded=0;fontColor=#000000;" vertex="1" parent="1">
          <mxGeometry x="805" y="357.16999999999996" width="89.7" height="10" as="geometry" />
        </mxCell>
        <mxCell id="PbMAt9xQU2e5YSf6mBX6-72" value="" style="endArrow=classic;html=1;rounded=0;exitX=0.97;exitY=0.116;exitDx=0;exitDy=0;exitPerimeter=0;entryX=-0.02;entryY=0.116;entryDx=0;entryDy=0;entryPerimeter=0;fontColor=#000000;" edge="1" parent="1">
          <mxGeometry width="50" height="50" relative="1" as="geometry">
            <mxPoint x="799.6" y="389.16999999999996" as="sourcePoint" />
            <mxPoint x="920.4000000000001" y="389.16999999999996" as="targetPoint" />
          </mxGeometry>
        </mxCell>
        <mxCell id="PbMAt9xQU2e5YSf6mBX6-73" value="f_reg_widx_MEM(5)" style="text;html=1;align=left;verticalAlign=middle;whiteSpace=wrap;rounded=0;fontColor=#000000;" vertex="1" parent="1">
          <mxGeometry x="806.0000000000001" y="376.16999999999996" width="60" height="10" as="geometry" />
        </mxCell>
        <mxCell id="PbMAt9xQU2e5YSf6mBX6-81" value="" style="endArrow=classic;html=1;rounded=0;exitX=0.97;exitY=0.116;exitDx=0;exitDy=0;exitPerimeter=0;entryX=-0.035;entryY=0.195;entryDx=0;entryDy=0;entryPerimeter=0;fontColor=#000000;" edge="1" parent="1" target="PbMAt9xQU2e5YSf6mBX6-21">
          <mxGeometry width="50" height="50" relative="1" as="geometry">
            <mxPoint x="1000.5999999999999" y="264.16999999999996" as="sourcePoint" />
            <mxPoint x="300" y="280" as="targetPoint" />
            <Array as="points">
              <mxPoint x="1160" y="264" />
              <mxPoint x="1160" y="640" />
              <mxPoint x="240" y="640" />
              <mxPoint x="240" y="276" />
            </Array>
          </mxGeometry>
        </mxCell>
        <mxCell id="PbMAt9xQU2e5YSf6mBX6-82" value="f_reg_wdata_WB(32)" style="text;html=1;align=left;verticalAlign=middle;whiteSpace=wrap;rounded=0;fontColor=#000000;" vertex="1" parent="1">
          <mxGeometry x="1012.4000000000001" y="251.34000000000003" width="74.7" height="10" as="geometry" />
        </mxCell>
        <mxCell id="PbMAt9xQU2e5YSf6mBX6-83" value="" style="endArrow=classic;html=1;rounded=0;exitX=0.97;exitY=0.116;exitDx=0;exitDy=0;exitPerimeter=0;entryX=-0.02;entryY=0.116;entryDx=0;entryDy=0;entryPerimeter=0;fontColor=#000000;" edge="1" parent="1">
          <mxGeometry width="50" height="50" relative="1" as="geometry">
            <mxPoint x="1000.4000000000001" y="370.16999999999996" as="sourcePoint" />
            <mxPoint x="1121.2" y="370.16999999999996" as="targetPoint" />
          </mxGeometry>
        </mxCell>
        <mxCell id="PbMAt9xQU2e5YSf6mBX6-84" value="f_reg_write_MEM(1)" style="text;html=1;align=left;verticalAlign=middle;whiteSpace=wrap;rounded=0;fontColor=#000000;" vertex="1" parent="1">
          <mxGeometry x="1005.4000000000001" y="357.16999999999996" width="89.7" height="10" as="geometry" />
        </mxCell>
        <mxCell id="PbMAt9xQU2e5YSf6mBX6-85" value="" style="endArrow=classic;html=1;rounded=0;exitX=0.97;exitY=0.116;exitDx=0;exitDy=0;exitPerimeter=0;entryX=-0.02;entryY=0.116;entryDx=0;entryDy=0;entryPerimeter=0;fontColor=#000000;" edge="1" parent="1">
          <mxGeometry width="50" height="50" relative="1" as="geometry">
            <mxPoint x="1000" y="389.16999999999996" as="sourcePoint" />
            <mxPoint x="1120.8000000000002" y="389.16999999999996" as="targetPoint" />
          </mxGeometry>
        </mxCell>
        <mxCell id="PbMAt9xQU2e5YSf6mBX6-86" value="f_reg_widx_MEM(5)" style="text;html=1;align=left;verticalAlign=middle;whiteSpace=wrap;rounded=0;fontColor=#000000;" vertex="1" parent="1">
          <mxGeometry x="1006.4000000000001" y="376.16999999999996" width="60" height="10" as="geometry" />
        </mxCell>
        <mxCell id="PbMAt9xQU2e5YSf6mBX6-87" value="CSR" style="rounded=0;whiteSpace=wrap;html=1;fontColor=#000000;" vertex="1" parent="1">
          <mxGeometry x="720" y="460" width="80" height="100" as="geometry" />
        </mxCell>
        <mxCell id="PbMAt9xQU2e5YSf6mBX6-88" value="" style="endArrow=classic;html=1;rounded=0;exitX=0.97;exitY=0.116;exitDx=0;exitDy=0;exitPerimeter=0;entryX=-0.02;entryY=0.116;entryDx=0;entryDy=0;entryPerimeter=0;fontColor=#000000;" edge="1" parent="1">
          <mxGeometry width="50" height="50" relative="1" as="geometry">
            <mxPoint x="721.0000000000001" y="503" as="sourcePoint" />
            <mxPoint x="600.2" y="503" as="targetPoint" />
          </mxGeometry>
        </mxCell>
        <mxCell id="PbMAt9xQU2e5YSf6mBX6-89" value="frm(3)" style="text;html=1;align=left;verticalAlign=middle;whiteSpace=wrap;rounded=0;fontColor=#000000;" vertex="1" parent="1">
          <mxGeometry x="643.3000000000001" y="490" width="37.4" height="10" as="geometry" />
        </mxCell>
        <mxCell id="PbMAt9xQU2e5YSf6mBX6-90" value="fcsr" style="rounded=0;whiteSpace=wrap;html=1;fontColor=#000000;" vertex="1" parent="1">
          <mxGeometry x="735" y="520" width="50" height="20" as="geometry" />
        </mxCell>
      </root>
    </mxGraphModel>
  </diagram>
</mxfile>
